HIERARCHY
ROOT ui
{
	 OFFSET 0 0 0
	 CHANNELS 3 XPosition YPosition Z Position
	 EndSite
	 {
	 OFFSET 0 -1 0
	 }
}
ROOT li
{
	 OFFSET 0 0 0
	 CHANNELS 3 XPosition YPosition Z Position
	 EndSite
	 {
	 OFFSET 0 -1 0
	 }
}
ROOT ul
{
	 OFFSET 0 0 0
	 CHANNELS 3 XPosition YPosition Z Position
	 EndSite
	 {
	 OFFSET 0 -1 0
	 }
}
ROOT ll
{
	 OFFSET 0 0 0
	 CHANNELS 3 XPosition YPosition Z Position
	 EndSite
	 {
	 OFFSET 0 -1 0
	 }
}
ROOT tt
{
	 OFFSET 0 0 0
	 CHANNELS 3 XPosition YPosition Z Position
	 EndSite
	 {
	 OFFSET 0 -1 0
	 }
}
ROOT tb
{
	 OFFSET 0 0 0
	 CHANNELS 3 XPosition YPosition Z Position
	 EndSite
	 {
	 OFFSET 0 -1 0
	 }
}
ROOT td
{
	 OFFSET 0 0 0
	 CHANNELS 3 XPosition YPosition Z Position
	 EndSite
	 {
	 OFFSET 0 -1 0
	 }
}
ROOT v
{
	 OFFSET 0 0 0
	 CHANNELS 3 XPosition YPosition Z Position
	 EndSite
	 {
	 OFFSET 0 -1 0
	 }
}
ROOT bn
{
	 OFFSET 0 0 0
	 CHANNELS 3 XPosition YPosition Z Position
	 EndSite
	 {
	 OFFSET 0 -1 0
	 }
}
MOTION
Frames: 16
Frame Time: 0.002
8.94677996635437E-4	0.0010880800485610963	0		0.44293017578125	-2.427527587890625	0		-1.1832354736328126	0.005049351215362549	0		-0.7687735595703125	-2.56207861328125	0		1.4227366943359374	-0.8294238891601563	0		3.020780029296875	-0.14094239807128905	0		4.4593720703125	0.03940883255004883	0		5.65343115234375	0.1932905731201172	0		-0.18304296875	5.88351123046875	0		
0.007369163990020752	0.007369204998016358	0		0.4723354797363281	-2.426666748046875	0		-1.17576123046875	0.011298562049865723	0		-0.8341651000976562	-2.54947265625	0		1.387264892578125	-0.8203485717773438	0		3.0172021484375	-0.13744129943847655	0		4.463568359375	0.03077997589111328	0		5.6617734375	0.1925996856689453	0		-0.18280073547363282	5.88090283203125	0		
0.00673347806930542	0.0068027029037475584	0		0.46188128662109373	-2.41904345703125	0		-1.109556640625	0.0014771440029144288	0		-0.7767775268554687	-2.551124267578125	0		1.415597900390625	-0.8234339599609375	0		3.016568359375	-0.13796875	0		4.4629326171875	0.030271291732788086	0		5.64700830078125	0.18536705017089844	0		-0.18447540283203126	5.88235205078125	0		
0.0030672149658203126	0.0033192529678344727	0		0.4691002197265625	-2.430722412109375	0		-1.1101678466796876	9.214850068092346E-4	0		-0.8122902221679688	-2.54802783203125	0		1.4091107177734374	-0.817843017578125	0		3.015959228515625	-0.13846463012695312	0		4.4574697265625	0.03788753509521484	0		5.64639453125	0.18490928649902344	0		-0.1983916473388672	5.87005224609375	0		
0.002485084056854248	0.002811033010482788	0		0.4597246398925781	-2.422058349609375	0		-1.1107498779296876	3.956190049648285E-4	0		-0.7918170166015625	-2.5479375	0		1.4054866943359374	-0.8212730102539062	0		3.01126904296875	-0.14485009765625	0		4.46173828125	0.029358835220336915	0		5.63681103515625	0.1846569366455078	0		-0.20004811096191405	5.8705595703125	0		
-0.002137481927871704	-0.0015880049467086792	0		0.44210885620117185	-2.428209228515625	0		-1.1862679443359374	0.002288326025009155	0		-0.8384256591796875	-2.553573974609375	0		1.373938232421875	-0.8221497192382813	0		2.994743408203125	-0.14397679138183594	0		4.46605859375	0.021870384216308592	0		5.6379443359375	0.16724574279785157	0		-0.19971656799316406	5.86906396484375	0		
0.007532051086425781	0.007789338111877441	0		0.4805042724609375	-2.43635595703125	0		-1.1036846923828125	0.006297330856323242	0		-0.7998803100585937	-2.55374560546875	0		1.3874930419921876	-0.8198197021484375	0		3.017413330078125	-0.13478431701660157	0		4.46789501953125	0.04047593307495117	0		5.6505361328125	0.17267201232910157	0		-0.18419282531738282	5.8763271484375	0		
0.004002347946166992	0.004448305130004883	0		0.433417236328125	-2.417880126953125	0		-1.1832015380859375	0.0043356032371520995	0		-0.84609423828125	-2.542312255859375	0		1.4121776123046874	-0.8126517333984375	0		3.013849609375	-0.1400658721923828	0		4.47119775390625	0.028095014572143556	0		5.63694970703125	0.16662672424316408	0		-0.18674581909179688	5.87796337890625	0		
0.0035678219795227052	0.004091786861419678	0		0.48387744140625	-2.42716552734375	0		-1.1127216796875	-0.0013525600433349609	0		-0.777634521484375	-2.551955810546875	0		1.406632080078125	-0.819885498046875	0		3.009308349609375	-0.14628469848632814	0		4.45976416015625	0.028034574508666994	0		5.63651171875	0.16638812255859375	0		-0.20148507690429687	5.8678623046875	0		
-0.00395320200920105	-0.003094455003738403	0		0.44049008178710936	-2.429679443359375	0		-1.188083984375	6.857690215110779E-4	0		-0.8400343017578125	-2.555148193359375	0		1.4062569580078126	-0.8201705322265626	0		3.008918212890625	-0.14653411865234375	0		4.4545185546875	0.03590797805786133	0		5.63096826171875	0.15829035949707032	0		-0.20200875854492187	5.86754150390625	0		
-2.3233599960803986E-4	5.547379851341248E-4	0		0.4661356811523438	-2.4334228515625	0		-1.113467041015625	-0.00199625301361084	0		-0.8382898559570312	-2.553481689453125	0		1.3739112548828125	-0.8208260498046875	0		3.008569580078125	-0.14673995971679688	0		4.46388818359375	0.020554948806762695	0		5.63572216796875	0.16405329895019533	0		-0.20249867248535156	5.86726025390625	0		
0.0025118820667266845	0.0032615530490875243	0		0.4409818115234375	-2.428191162109375	0		-1.1846920166015624	0.0030402090549468993	0		-0.8375001220703125	-2.5517587890625	0		1.410761962890625	-0.8137095947265625	0		3.008262939453125	-0.14690280151367188	0		4.45870654296875	0.02751884651184082	0		5.63126171875	0.15603050231933593	0		-0.18877377319335936	5.8767587890625	0		
0.0022435839176177977	0.003061953067779541	0		0.4936770324707031	-2.43434912109375	0		-1.11404541015625	-0.0024905579090118406	0		-0.837701171875	-2.55198046875	0		1.3705584716796875	-0.8111397705078125	0		3.01210791015625	-0.14109757995605468	0		4.4535849609375	0.03552677536010742	0		5.6309892578125	0.1559790496826172	0		-0.2033774871826172	5.8668125	0		
0.0020174150466918945	0.0028988471031188966	0		0.4566895751953125	-2.424823486328125	0		-1.114271484375	-0.0026847689151763914	0		-0.7897178344726562	-2.545046142578125	0		1.4051844482421876	-0.8209033813476563	0		3.0118857421875	-0.1411768035888672	0		4.4582109375	0.02739759063720703	0		5.62663134765625	0.149047119140625	0		-0.2037670440673828	5.8666435546875	0		
-0.005293651103973389	-0.0041008667945861815	0		0.49031552124023436	-2.43955712890625	0		-1.1144556884765624	-0.002846426010131836	0		-0.8159505615234375	-2.551722412109375	0		1.4050244140625	-0.8209906616210938	0		3.0075966796875	-0.14714262390136718	0		4.45802587890625	0.027400421142578124	0		5.62644287109375	0.14908444213867186	0		-0.20412454223632812	5.8665087890625	0		
0.0016899329423904418	0.0026734380722045897	0		0.4482376403808594	-2.439872802734375	0		-1.18956787109375	-6.110280156135559E-4	0		-0.7681856689453125	-2.56171826171875	0		1.4049071044921875	-0.82104345703125	0		3.007458251953125	-0.14714523315429687	0		4.4578818359375	0.02744322967529297	0		5.630421875	0.15608975219726562	0		-0.20346958923339845	5.8653876953125	0		
